<svg width="801" height="488" viewBox="0 0 801 488" fill="none" xmlns="http://www.w3.org/2000/svg">
<path d="M403.806 11.76L0.5 412.5V449L375.773 70.8946C383.948 62.6576 398 68.4471 398 80.0524V446.112C398 481.863 441.323 499.657 466.452 474.227L667.753 270.514C675.92 262.249 690 268.032 690 279.651V447.546C690 483.095 732.906 500.981 758.156 475.958L801 433.5L783 416L776.639 420.947C770.071 426.056 760.5 421.375 760.5 413.054V240.754C760.5 204.952 717.071 187.181 691.974 212.714L489.132 419.072C482.857 425.455 472 421.012 472 412.061V40.1344C472 4.55968 429.041 -13.3147 403.806 11.76Z" fill="white"/>
</svg>
