<svg width="441" height="287" viewBox="0 0 441 287" fill="none" xmlns="http://www.w3.org/2000/svg">
<path d="M42.1571 12.6465L0.5 56L16 71L18.2152 68.7395C26.366 60.4224 40.5 66.1934 40.5 77.8386V243.148C40.5 279.033 84.0994 296.765 109.145 271.067L306.19 68.8908C314.33 60.5388 328.5 66.3017 328.5 77.9642V246.149C328.5 281.611 371.228 299.535 396.528 274.686L440.5 231.5L426 213L421.88 216.474C413.426 223.601 400.5 217.592 400.5 206.535V43.0971C400.5 7.52776 357.552 -10.349 332.314 14.715L133.16 212.493C124.958 220.638 111 214.828 111 203.268V40.3608C111 4.33854 67.1154 -13.3282 42.1571 12.6465Z" fill="white"/>
</svg>
